<?xml version="1.0" encoding="UTF-8"?>
<svg width="132px" height="132px" viewBox="0 0 132 132" version="1.1" xmlns="http://www.w3.org/2000/svg" xmlns:xlink="http://www.w3.org/1999/xlink">
    <title>YPSFavicon</title>
    <g id="YPSFavicon" stroke="none" stroke-width="1" fill="none" fill-rule="evenodd">
        <path d="M59.4067527,51.3334817 C56.8204561,50.4184837 53.8412732,48.0050109 52.3656261,45.6318117 C51.7980695,44.7187784 50.8865541,43.3239345 50.3375899,42.5317221 C49.1873092,40.8662589 44.3689495,37.5431906 42.2934538,36.981324 C40.5027149,36.4975489 40.4758049,35.8030738 42.186303,34.1837779 C44.4071128,32.0811981 47.2013504,32.3248046 51.1825642,34.9686232 C55.8825199,38.0903231 57.5851896,37.7715718 56.2186504,34.0226833 C55.8174466,32.923507 55.1789454,31.1740584 54.8007374,30.1357838 C54.4220402,29.0999649 53.783539,26.7400266 53.3823352,24.8928407 C52.9811315,23.0471283 52.1498568,19.8989067 51.5343514,17.8975022 C50.2460958,13.707568 50.2020613,13.1511038 51.0661172,12.0922012 C52.854899,9.90514495 54.3628382,11.0755368 55.8918161,15.8391252 C59.4542122,26.9472886 61.7919582,26.7960168 61.7919582,15.4516139 C61.7919582,9.18758618 62.827749,7.11545718 65.3504401,8.33201644 C66.3788918,8.82905236 66.3788918,8.82905236 66.3788918,16.9270052 C66.3788918,28.8008593 67.1583036,28.8391684 71.7016919,17.1897662 C73.7811018,11.856453 74.4098175,11.1040231 75.9387954,12.1093912 C77.4315671,13.0916756 77.4677733,14.3406503 76.1105302,18.0242169 C73.1293903,26.1241342 72.7413969,27.4536562 73.1905494,27.998824 C74.0922794,29.090142 75.0727823,28.4747408 79.168486,24.2381481 C82.9760078,20.3036079 83.3772116,19.9887857 84.111121,20.3841552 C85.9860148,21.3914879 85.0475894,24.079018 81.4582832,27.9698467 C78.8152309,30.8381172 77.92084,33.1327336 77.5499711,38.0058466 C77.089076,44.0758732 76.2866685,46.3110614 73.6587836,48.8571426 C70.4858487,51.9282549 64.1791208,53.0259577 59.4067527,51.3334817 Z" id="Fill-1" fill="#EE0C6E"></path>
        <path d="M34.9714824,64.6252319 C32.3419383,65.5204991 28.4604332,65.4796811 25.7993436,64.5309027 C24.7736333,64.1653987 23.1733303,63.635318 22.24188,63.3533922 C20.2847719,62.7586707 14.3702959,63.150925 12.3689016,64.0052556 C10.6425236,64.7447227 10.1865763,64.2118099 10.5275186,61.8659958 C10.9730517,58.8157036 13.3428691,57.2610557 18.1663648,56.8565947 C23.858049,56.3794631 25.0092374,55.0633398 21.571984,52.9615055 C20.5629383,52.3429555 18.9575762,51.3627765 18.0057866,50.780753 C17.0559309,50.1991759 15.0665772,48.7361382 13.5882563,47.5299157 C12.1104188,46.3238047 9.47490049,44.3599431 7.72923255,43.1669893 C4.07575126,40.6651099 3.69112635,40.2555754 3.71455283,38.8792316 C3.76127461,36.0322686 5.69501689,36.0135639 9.89720103,38.8164237 C19.7004594,45.3526278 21.4619872,43.7705378 14.3423062,34.8213277 C10.4093256,29.8775164 9.93229924,27.5941792 12.6985694,26.9757172 C13.8265779,26.7238717 13.8265779,26.7238717 18.9094492,33.1142579 C26.3640187,42.4833078 27.0067742,42.0262012 23.3022945,29.9917831 C21.6061232,24.4841101 21.6334325,23.4967896 23.4789511,23.3330703 C25.2799337,23.1747765 26.0937204,24.1384012 27.3293448,27.8935025 C30.0466861,36.1486092 30.5715422,37.4417631 31.2711912,37.5896091 C32.6725734,37.8873023 33.063834,36.7858896 33.6593312,30.8825749 C34.2113727,25.3968767 34.3344991,24.8988484 35.1642791,24.7499204 C37.2866101,24.3709203 38.2270243,27.0799491 37.8192194,32.3952563 C37.5198495,36.3122966 38.2494129,38.6818047 41.0144159,42.7580692 C44.4585783,47.8362942 45.2243998,50.1016873 44.7353728,53.7550369 C44.1429965,58.164834 39.821992,62.974462 34.9714824,64.6252319 Z" id="Fill-2" fill="#8781BD"></path>
        <path d="M79.4508751,52.8949765 C79.0029594,50.1705677 79.6924259,46.375957 81.0818536,43.9321405 C81.6151058,42.9915613 82.4096015,41.515125 82.8458244,40.6507315 C83.7633125,38.8337276 84.3652637,32.9765116 83.8525478,30.8723204 C83.4093429,29.0569667 84.014403,28.7002276 86.2835664,29.4337707 C89.235996,30.3884417 90.3813546,32.9744427 89.974089,37.765173 C89.4930156,43.4189703 90.6076046,44.7701136 93.2690307,41.7613566 C94.0509141,40.878661 95.2917894,39.4759116 96.0293959,38.6419764 C96.7653771,37.8099031 98.5505614,36.1138269 99.9939945,34.8719219 C101.438061,33.6280857 103.827856,31.3821348 105.305683,29.8764375 C108.399639,26.7260583 108.870738,26.4177347 110.233261,26.6750019 C113.047884,27.2056773 112.744462,29.1001919 109.257967,32.739713 C101.130601,41.2250652 102.406595,43.2186643 112.478582,37.770301 C118.042506,34.7625126 120.388557,34.6816036 120.536092,37.4966229 C120.597812,38.6452416 120.597812,38.6452416 113.407443,42.5329697 C102.861551,48.2371099 103.207314,48.9443138 115.76781,47.3646252 C121.516317,46.642052 122.492059,46.8357261 122.345741,48.6715905 C122.201131,50.4616441 121.107761,51.0948832 117.176046,51.664967 C108.530081,52.9203065 107.158432,53.214057 106.894445,53.8746721 C106.365975,55.1958676 107.391052,55.7673471 113.147656,57.3522191 C118.499211,58.8282661 118.973817,59.0328276 118.981493,59.8709724 C119.001103,62.0137753 116.155557,62.4741154 110.951401,61.1708596 C107.115264,60.2102013 104.642478,60.5212824 100.13488,62.5346899 C94.5182753,65.0414649 92.1429374,65.4057843 88.599279,64.3035879 C84.3254106,62.9745116 80.2767078,57.9265156 79.4508751,52.8949765 Z" id="Fill-3" fill="#FB911C"></path>
        <path d="M12.839224,70.8488372 L24.7921436,70.8488372 L32.7921436,78.8488372 L32.7921436,123 L32.7921436,123 L12.839224,123 L12.839224,70.8488372 Z" id="Rectangle" fill="#6A7A98"></path>
        <path d="M34.3509941,83.5523256 L46.3039137,83.5523256 L54.3039137,91.5523256 L54.3039137,123 L54.3039137,123 L34.3509941,123 L34.3509941,83.5523256 Z" id="Rectangle-Copy" fill="#6E8D90"></path>
        <path d="M55.8627642,70.8488372 L67.8156838,70.8488372 L75.8156838,78.8488372 L75.8156838,123 L75.8156838,123 L55.8627642,123 L55.8627642,70.8488372 Z" id="Rectangle-Copy-3" fill="#728C75"></path>
        <path d="M77.3745343,83.5523256 L89.3274539,83.5523256 L97.3274539,91.5523256 L97.3274539,123 L97.3274539,123 L77.3745343,123 L77.3745343,83.5523256 Z" id="Rectangle-Copy-2" fill="#978F63"></path>
        <path d="M98.8863044,70.8488372 L110.839224,70.8488372 L118.839224,78.8488372 L118.839224,123 L118.839224,123 L98.8863044,123 L98.8863044,70.8488372 Z" id="Rectangle-Copy-5" fill="#9B7952"></path>
    </g>
</svg>