<?xml version="1.0" encoding="UTF-8"?>
<svg width="445px" height="115px" viewBox="0 0 445 115" version="1.1" xmlns="http://www.w3.org/2000/svg" xmlns:xlink="http://www.w3.org/1999/xlink">
    <title>Group 6 Copy 3</title>
    <g id="Branding" stroke="none" stroke-width="1" fill="none" fill-rule="evenodd">
        <g id="Group-6-Copy-3" transform="translate(0.7136, 0)">
            <path d="M55.6931495,43.3334817 C53.1068528,42.4184837 50.12767,40.0050109 48.6520229,37.6318117 C48.0844663,36.7187784 47.1729508,35.3239345 46.6239866,34.5317221 C45.473706,32.8662589 40.6553463,29.5431906 38.5798505,28.981324 C36.7891116,28.4975489 36.7622016,27.8030738 38.4726998,26.1837779 C40.6935095,24.0811981 43.4877472,24.3248046 47.4689609,26.9686232 C52.1689166,30.0903231 53.8715864,29.7715718 52.5050471,26.0226833 C52.1038433,24.923507 51.4653421,23.1740584 51.0871342,22.1357838 C50.7084369,21.0999649 50.0699358,18.7400266 49.668732,16.8928407 C49.2675282,15.0471283 48.4362535,11.8989067 47.8207482,9.89750216 C46.5324926,5.70756795 46.488458,5.15110383 47.352514,4.09220122 C49.1412958,1.90514495 50.6492349,3.07553684 52.1782128,7.83912515 C55.7406089,18.9472886 58.0783549,18.7960168 58.0783549,7.45161395 C58.0783549,1.18758618 59.1141457,-0.884542817 61.6368369,0.332016442 C62.6652886,0.829052361 62.6652886,0.829052361 62.6652886,8.92700515 C62.6652886,20.8008593 63.4447003,20.8391684 67.9880887,9.18976624 C70.0674986,3.85645296 70.6962143,3.10402309 72.2251922,4.1093912 C73.7179638,5.09167562 73.75417,6.34065026 72.3969269,10.0242169 C69.415787,18.1241342 69.0277936,19.4536562 69.4769462,19.998824 C70.3786762,21.090142 71.3591791,20.4747408 75.4548827,16.2381481 C79.2624046,12.3036079 79.6636084,11.9887857 80.3975177,12.3841552 C82.2724116,13.3914879 81.3339861,16.079018 77.74468,19.9698467 C75.1016276,22.8381172 74.2072368,25.1327336 73.8363679,30.0058466 C73.3754728,36.0758732 72.5730652,38.3110614 69.9451803,40.8571426 C66.7722455,43.9282549 60.4655175,45.0259577 55.6931495,43.3334817 Z" id="Fill-1" fill="#F2EBEB"></path>
            <path d="M31.2578791,56.6252319 C28.628335,57.5204991 24.74683,57.4796811 22.0857403,56.5309027 C21.0600301,56.1653987 19.4597271,55.635318 18.5282767,55.3533922 C16.5711687,54.7586707 10.6566926,55.150925 8.65529833,56.0052556 C6.92892037,56.7447227 6.47297303,56.2118099 6.81391532,53.8659958 C7.25944844,50.8157036 9.62926587,49.2610557 14.4527616,48.8565947 C20.1444457,48.3794631 21.2956341,47.0633398 17.8583808,44.9615055 C16.849335,44.3429555 15.2439729,43.3627765 14.2921834,42.780753 C13.3423276,42.1991759 11.3529739,40.7361382 9.874653,39.5299157 C8.39681555,38.3238047 5.76129723,36.3599431 4.01562929,35.1669893 C0.362147995,32.6651099 -0.0224769093,32.2555754 0.000949572423,30.8792316 C0.0476713458,28.0322686 1.98141363,28.0135639 6.18359777,30.8164237 C15.9868561,37.3526278 17.7483839,35.7705378 10.6287029,26.8213277 C6.69572234,21.8775164 6.21869598,19.5941792 8.98496616,18.9757172 C10.1129746,18.7238717 10.1129746,18.7238717 15.1958459,25.1142579 C22.6504155,34.4833078 23.293171,34.0262012 19.5886912,21.9917831 C17.8925199,16.4841101 17.9198292,15.4967896 19.7653479,15.3330703 C21.5663304,15.1747765 22.3801171,16.1384012 23.6157415,19.8935025 C26.3330828,28.1486092 26.8579389,29.4417631 27.557588,29.5896091 C28.9589701,29.8873023 29.3502307,28.7858896 29.945728,22.8825749 C30.4977695,17.3968767 30.6208958,16.8988484 31.4506758,16.7499204 C33.5730068,16.3709203 34.5134211,19.0799491 34.1056162,24.3952563 C33.8062462,28.3122966 34.5358097,30.6818047 37.3008126,34.7580692 C40.7449751,39.8362942 41.5107966,42.1016873 41.0217695,45.7550369 C40.4293932,50.164834 36.1083887,54.974462 31.2578791,56.6252319 Z" id="Fill-2" fill="#F2EBEB"></path>
            <path d="M75.7372719,44.8949765 C75.2893562,42.1705677 75.9788227,38.375957 77.3682503,35.9321405 C77.9015026,34.9915613 78.6959983,33.515125 79.1322211,32.6507315 C80.0497093,30.8337276 80.6516604,24.9765116 80.1389446,22.8723204 C79.6957396,21.0569667 80.3007997,20.7002276 82.5699631,21.4337707 C85.5223927,22.3884417 86.6677513,24.9744427 86.2604857,29.765173 C85.7794123,35.4189703 86.8940013,36.7701136 89.5554275,33.7613566 C90.3373108,32.878661 91.5781862,31.4759116 92.3157927,30.6419764 C93.0517738,29.8099031 94.8369581,28.1138269 96.2803912,26.8719219 C97.7244577,25.6280857 100.114253,23.3821348 101.59208,21.8764375 C104.686036,18.7260583 105.157135,18.4177347 106.519658,18.6750019 C109.33428,19.2056773 109.030859,21.1001919 105.544364,24.739713 C97.4169978,33.2250652 98.6929913,35.2186643 108.764979,29.770301 C114.328903,26.7625126 116.674954,26.6816036 116.822489,29.4966229 C116.884208,30.6452416 116.884208,30.6452416 109.693839,34.5329697 C99.147948,40.2371099 99.4937109,40.9443138 112.054207,39.3646252 C117.802714,38.642052 118.778455,38.8357261 118.632138,40.6715905 C118.487528,42.4616441 117.394157,43.0948832 113.462443,43.664967 C104.816478,44.9203065 103.444829,45.214057 103.180842,45.8746721 C102.652372,47.1958676 103.677449,47.7673471 109.434053,49.3522191 C114.785608,50.8282661 115.260214,51.0328276 115.26789,51.8709724 C115.2875,54.0137753 112.441954,54.4741154 107.237798,53.1708596 C103.401661,52.2102013 100.928874,52.5212824 96.4212768,54.5346899 C90.804672,57.0414649 88.4293342,57.4057843 84.8856758,56.3035879 C80.6118074,54.9745116 76.5631046,49.9265156 75.7372719,44.8949765 Z" id="Fill-3" fill="#F2EBEB"></path>
            <path d="M7.1256207,62.8488372 L20.070592,62.8488372 L28.070592,70.8488372 L28.070592,115 L28.070592,115 L7.1256207,115 L7.1256207,62.8488372 Z" id="Rectangle" fill="#F2EBEB"></path>
            <path d="M28.8893779,75.5523256 L41.8343492,75.5523256 L49.8343492,83.5523256 L49.8343492,115 L49.8343492,115 L28.8893779,115 L28.8893779,75.5523256 Z" id="Rectangle-Copy" fill="#F2EBEB"></path>
            <path d="M50.653135,62.8488372 L63.5981064,62.8488372 L71.5981064,70.8488372 L71.5981064,115 L71.5981064,115 L50.653135,115 L50.653135,62.8488372 Z" id="Rectangle-Copy-3" fill="#F2EBEB"></path>
            <path d="M72.4168922,75.5523256 L85.3618635,75.5523256 L93.3618635,83.5523256 L93.3618635,115 L93.3618635,115 L72.4168922,115 L72.4168922,75.5523256 Z" id="Rectangle-Copy-2" fill="#F2EBEB"></path>
            <path d="M94.1806494,62.8488372 L107.125621,62.8488372 L115.125621,70.8488372 L115.125621,115 L115.125621,115 L94.1806494,115 L94.1806494,62.8488372 Z" id="Rectangle-Copy-5" fill="#F2EBEB"></path>
            <g id="Youth,-Peace,-and-Se" transform="translate(146.2864, 36.4082)" fill="#F7F7F7" fill-rule="nonzero">
                <polygon id="Path" points="10.0830078 13.5693359 16.3720703 1.60644531 20.1318359 1.60644531 11.8261719 16.8847656 11.8261719 26.5917969 8.32275391 26.5917969 8.32275391 17.0385742 0 1.60644531 3.828125 1.60644531"></polygon>
                <path d="M39.5117188,17.1411133 C39.5117188,18.6905924 39.3094889,20.0720215 38.9050293,21.2854004 C38.5005697,22.4987793 37.9138184,23.5241699 37.1447754,24.3615723 C36.3757324,25.1989746 35.4500326,25.8369954 34.3676758,26.2756348 C33.285319,26.7142741 32.0605469,26.9335938 30.6933594,26.9335938 C29.4173177,26.9335938 28.2466634,26.7142741 27.1813965,26.2756348 C26.1161296,25.8369954 25.1961263,25.1989746 24.4213867,24.3615723 C23.6466471,23.5241699 23.0485026,22.4987793 22.6269531,21.2854004 C22.2054036,20.0720215 21.9946289,18.6905924 21.9946289,17.1411133 C21.9946289,15.0789388 22.347819,13.3215332 23.0541992,11.8688965 C23.7605794,10.4162598 24.7717285,9.31111654 26.0876465,8.5534668 C27.4035645,7.79581706 28.9729818,7.41699219 30.7958984,7.41699219 C32.5276693,7.41699219 34.0486654,7.79866536 35.3588867,8.56201172 C36.6691081,9.32535807 37.6888021,10.4305013 38.4179688,11.8774414 C39.1471354,13.3243815 39.5117188,15.0789388 39.5117188,17.1411133 Z M25.5151367,17.1411133 C25.5151367,18.5880534 25.7002767,19.8327637 26.0705566,20.8752441 C26.4408366,21.9177246 27.010498,22.718099 27.779541,23.2763672 C28.548584,23.8346354 29.5426432,24.1137695 30.7617188,24.1137695 C31.9580078,24.1137695 32.9435221,23.8346354 33.7182617,23.2763672 C34.4930013,22.718099 35.0626628,21.9177246 35.4272461,20.8752441 C35.7918294,19.8327637 35.9741211,18.5880534 35.9741211,17.1411133 C35.9741211,15.7055664 35.7918294,14.4750977 35.4272461,13.449707 C35.0626628,12.4243164 34.4958496,11.6381836 33.7268066,11.0913086 C32.9577637,10.5444336 31.9580078,10.2709961 30.7275391,10.2709961 C28.9274089,10.2709961 27.6086426,10.8719889 26.7712402,12.0739746 C25.9338379,13.2759603 25.5151367,14.9650065 25.5151367,17.1411133 Z" id="Shape"></path>
                <path d="M60.2587891,7.75878906 L60.2587891,26.5917969 L57.5073242,26.5917969 L57.0288086,24.0112305 L56.8408203,24.0112305 C56.4534505,24.6606445 55.9521484,25.2018229 55.3369141,25.6347656 C54.7216797,26.0677083 54.0323893,26.3924154 53.269043,26.6088867 C52.5056966,26.8253581 51.6967773,26.9335938 50.8422852,26.9335938 C49.3953451,26.9335938 48.1677246,26.6943359 47.1594238,26.2158203 C46.151123,25.7373047 45.3877767,24.9938965 44.8693848,23.9855957 C44.3509928,22.9772949 44.0917969,21.6756185 44.0917969,20.0805664 L44.0917969,7.75878906 L47.5439453,7.75878906 L47.5439453,19.6020508 C47.5439453,21.1173503 47.8715007,22.2509766 48.5266113,23.0029297 C49.181722,23.7548828 50.1814779,24.1308594 51.5258789,24.1308594 C52.8361003,24.1308594 53.8757324,23.8716634 54.6447754,23.3532715 C55.4138184,22.8348796 55.96639,22.0772298 56.3024902,21.0803223 C56.6385905,20.0834147 56.8066406,18.8614909 56.8066406,17.4145508 L56.8066406,7.75878906 L60.2587891,7.75878906 Z" id="Path"></path>
                <path d="M72.6831055,24.1479492 C73.1730143,24.1479492 73.6686198,24.1052246 74.1699219,24.0197754 C74.671224,23.9343262 75.1041667,23.8232422 75.46875,23.6865234 L75.46875,26.3183594 C75.0813802,26.4892578 74.5658366,26.6345215 73.9221191,26.7541504 C73.2784017,26.8737793 72.6204427,26.9335938 71.9482422,26.9335938 C70.9228516,26.9335938 69.9943034,26.7569987 69.1625977,26.4038086 C68.3308919,26.0506185 67.6672363,25.4467773 67.1716309,24.5922852 C66.6760254,23.737793 66.4282227,22.5528971 66.4282227,21.0375977 L66.4282227,10.4077148 L63.8134766,10.4077148 L63.8134766,8.81835937 L66.5478516,7.55371094 L67.7612305,3.48632812 L69.8803711,3.48632812 L69.8803711,7.75878906 L75.3320312,7.75878906 L75.3320312,10.4077148 L69.8803711,10.4077148 L69.8803711,20.9863281 C69.8803711,22.0458984 70.1338704,22.8377279 70.6408691,23.3618164 C71.1478678,23.8859049 71.8286133,24.1479492 72.6831055,24.1479492 Z" id="Path"></path>
                <path d="M82.7148438,0 L82.7148438,7.31445312 C82.7148438,7.89550781 82.6977539,8.46516927 82.6635742,9.0234375 C82.6293945,9.58170573 82.5895182,10.0488281 82.5439453,10.4248047 L82.7490234,10.4248047 C83.1477865,9.7639974 83.6405436,9.21427409 84.2272949,8.77563477 C84.8140462,8.33699544 85.4805501,8.0065918 86.2268066,7.78442383 C86.9730632,7.56225586 87.7620443,7.45117187 88.59375,7.45117187 C90.0634766,7.45117187 91.3053385,7.69042969 92.3193359,8.16894531 C93.3333333,8.64746094 94.1023763,9.39086914 94.6264648,10.3991699 C95.1505534,11.4074707 95.4125977,12.7148437 95.4125977,14.3212891 L95.4125977,26.5917969 L92.0117188,26.5917969 L92.0117188,14.7827148 C92.0117188,13.2788086 91.6813151,12.1480306 91.0205078,11.3903809 C90.3597005,10.6327311 89.3457031,10.2539063 87.9785156,10.2539063 C86.6796875,10.2539063 85.6429036,10.5131022 84.8681641,11.0314941 C84.0934245,11.5498861 83.5408529,12.3103841 83.2104492,13.3129883 C82.8800456,14.3155924 82.7148438,15.5460612 82.7148438,17.0043945 L82.7148438,26.5917969 L79.2797852,26.5917969 L79.2797852,0 L82.7148438,0 Z" id="Path"></path>
                <path d="M104.794922,22.5244141 L105.01709,22.9174805 C104.812012,23.7491862 104.552816,24.6378581 104.239502,25.5834961 C103.926188,26.5291341 103.581543,27.4747721 103.205566,28.4204102 C102.82959,29.3660482 102.453613,30.2604167 102.077637,31.1035156 L99.5483398,31.1035156 C99.7875977,30.1920573 100.018311,29.2293294 100.240479,28.215332 C100.462646,27.2013346 100.667725,26.2044271 100.855713,25.2246094 C101.043701,24.2447917 101.194661,23.3447266 101.308594,22.5244141 L104.794922,22.5244141 Z" id="Path"></path>
                <path d="M126.84082,1.60644531 C130.065104,1.60644531 132.420654,2.25016276 133.907471,3.53759766 C135.394287,4.82503255 136.137695,6.65364583 136.137695,9.0234375 C136.137695,10.094401 135.966797,11.1112467 135.625,12.0739746 C135.283203,13.0367025 134.727783,13.885498 133.95874,14.6203613 C133.189697,15.3552246 132.178548,15.9362793 130.925293,16.3635254 C129.672038,16.7907715 128.133952,17.0043945 126.311035,17.0043945 L123.457031,17.0043945 L123.457031,26.5917969 L119.953613,26.5917969 L119.953613,1.60644531 L126.84082,1.60644531 Z M126.567383,4.54589844 L123.457031,4.54589844 L123.457031,14.0478516 L125.935059,14.0478516 C127.381999,14.0478516 128.595378,13.885498 129.575195,13.560791 C130.555013,13.236084 131.295573,12.7148437 131.796875,11.9970703 C132.298177,11.2792969 132.548828,10.3336589 132.548828,9.16015625 C132.548828,7.61067708 132.064616,6.45426432 131.096191,5.69091797 C130.127767,4.92757161 128.618164,4.54589844 126.567383,4.54589844 Z" id="Shape"></path>
                <path d="M148.203125,7.41699219 C149.84375,7.41699219 151.250814,7.76733398 152.424316,8.46801758 C153.597819,9.16870117 154.497884,10.1570638 155.124512,11.4331055 C155.751139,12.7091471 156.064453,14.2130534 156.064453,15.9448242 L156.064453,17.8930664 L143.28125,17.8930664 C143.31543,19.909668 143.833822,21.4562988 144.836426,22.532959 C145.83903,23.6096191 147.246094,24.1479492 149.057617,24.1479492 C150.253906,24.1479492 151.319173,24.0340169 152.253418,23.8061523 C153.187663,23.5782878 154.156087,23.2421875 155.158691,22.7978516 L155.158691,25.6860352 C154.213053,26.1189779 153.264567,26.43514 152.313232,26.6345215 C151.361898,26.833903 150.225423,26.9335938 148.903809,26.9335938 C147.080892,26.9335938 145.482992,26.5690104 144.110107,25.8398437 C142.737223,25.1106771 141.669108,24.0311686 140.905762,22.6013184 C140.142415,21.1714681 139.760742,19.4083659 139.760742,17.3120117 C139.760742,15.238444 140.108236,13.4639486 140.803223,11.9885254 C141.49821,10.5131022 142.478027,9.38232422 143.742676,8.59619141 C145.007324,7.81005859 146.494141,7.41699219 148.203125,7.41699219 Z M148.186035,10.0830078 C146.796061,10.0830078 145.679525,10.5358887 144.836426,11.4416504 C143.993327,12.3474121 143.497721,13.6433919 143.349609,15.3295898 L152.612305,15.3295898 C152.600911,14.292806 152.43571,13.3813477 152.116699,12.5952148 C151.797689,11.809082 151.316325,11.1938477 150.672607,10.7495117 C150.02889,10.3051758 149.200033,10.0830078 148.186035,10.0830078 Z" id="Shape"></path>
                <path d="M167.941895,7.43408203 C170.266113,7.43408203 172.003581,7.94962565 173.154297,8.98071289 C174.305013,10.0118001 174.880371,11.6381836 174.880371,13.8598633 L174.880371,26.5917969 L172.419434,26.5917969 L171.75293,23.8574219 L171.616211,23.8574219 C171.092122,24.5410156 170.545247,25.1106771 169.975586,25.5664062 C169.405924,26.0221354 168.747965,26.3639323 168.001709,26.5917969 C167.255452,26.8196615 166.346842,26.9335938 165.275879,26.9335938 C164.136556,26.9335938 163.122559,26.7285156 162.233887,26.3183594 C161.345215,25.9082031 160.64738,25.2901204 160.140381,24.4641113 C159.633382,23.6381022 159.379883,22.5870768 159.379883,21.3110352 C159.379883,19.3969727 160.114746,17.9443359 161.584473,16.953125 C163.054199,15.9619141 165.281576,15.4207357 168.266602,15.3295898 L171.513672,15.1928711 L171.513672,14.1333008 C171.513672,12.6635742 171.186117,11.6267904 170.531006,11.0229492 C169.875895,10.4191081 168.961589,10.1171875 167.788086,10.1171875 C166.819661,10.1171875 165.891113,10.2567546 165.002441,10.5358887 C164.11377,10.8150228 163.259277,11.1482747 162.438965,11.5356445 L161.345215,9.04052734 C162.233887,8.58479818 163.245036,8.203125 164.378662,7.89550781 C165.512288,7.58789062 166.700033,7.43408203 167.941895,7.43408203 Z M171.479492,17.4487305 L168.847656,17.5683594 C166.671549,17.648112 165.142008,18.009847 164.259033,18.6535645 C163.376058,19.2972819 162.93457,20.1944987 162.93457,21.3452148 C162.93457,22.347819 163.236491,23.0826823 163.840332,23.5498047 C164.444173,24.0169271 165.241699,24.2504883 166.23291,24.2504883 C167.759603,24.2504883 169.015706,23.8203939 170.001221,22.9602051 C170.986735,22.1000163 171.479492,20.8268229 171.479492,19.140625 L171.479492,17.4487305 Z" id="Shape"></path>
                <path d="M188.17627,26.9335938 C186.444499,26.9335938 184.929199,26.5861003 183.630371,25.8911133 C182.331543,25.1961263 181.32609,24.1337077 180.614014,22.7038574 C179.901937,21.2740072 179.545898,19.465332 179.545898,17.277832 C179.545898,14.9991862 179.927572,13.1335449 180.690918,11.6809082 C181.454264,10.2282715 182.510986,9.15445964 183.861084,8.45947266 C185.211182,7.76448568 186.757812,7.41699219 188.500977,7.41699219 C189.526367,7.41699219 190.486247,7.51953125 191.380615,7.72460938 C192.274984,7.9296875 193.024089,8.18603516 193.62793,8.49365234 L192.602539,11.2792969 C191.964518,11.0286458 191.278076,10.8064779 190.543213,10.612793 C189.80835,10.4191081 189.110514,10.3222656 188.449707,10.3222656 C187.242025,10.3222656 186.242269,10.5871582 185.450439,11.1169434 C184.65861,11.6467285 184.063314,12.4243164 183.664551,13.449707 C183.265788,14.4750977 183.066406,15.7397461 183.066406,17.2436523 C183.066406,18.7019857 183.262939,19.9353027 183.656006,20.9436035 C184.049072,21.9519043 184.630127,22.718099 185.39917,23.2421875 C186.168213,23.766276 187.128092,24.0283203 188.278809,24.0283203 C189.292806,24.0283203 190.204264,23.914388 191.013184,23.6865234 C191.822103,23.4586589 192.568359,23.1681315 193.251953,22.8149414 L193.251953,25.8398437 C192.591146,26.2044271 191.861979,26.4778646 191.064453,26.6601562 C190.266927,26.8424479 189.304199,26.9335938 188.17627,26.9335938 Z" id="Path"></path>
                <path d="M205.061035,7.41699219 C206.70166,7.41699219 208.108724,7.76733398 209.282227,8.46801758 C210.455729,9.16870117 211.355794,10.1570638 211.982422,11.4331055 C212.609049,12.7091471 212.922363,14.2130534 212.922363,15.9448242 L212.922363,17.8930664 L200.13916,17.8930664 C200.17334,19.909668 200.691732,21.4562988 201.694336,22.532959 C202.69694,23.6096191 204.104004,24.1479492 205.915527,24.1479492 C207.111816,24.1479492 208.177083,24.0340169 209.111328,23.8061523 C210.045573,23.5782878 211.013997,23.2421875 212.016602,22.7978516 L212.016602,25.6860352 C211.070964,26.1189779 210.122477,26.43514 209.171143,26.6345215 C208.219808,26.833903 207.083333,26.9335938 205.761719,26.9335938 C203.938802,26.9335938 202.340902,26.5690104 200.968018,25.8398437 C199.595133,25.1106771 198.527018,24.0311686 197.763672,22.6013184 C197.000326,21.1714681 196.618652,19.4083659 196.618652,17.3120117 C196.618652,15.238444 196.966146,13.4639486 197.661133,11.9885254 C198.35612,10.5131022 199.335938,9.38232422 200.600586,8.59619141 C201.865234,7.81005859 203.352051,7.41699219 205.061035,7.41699219 Z M205.043945,10.0830078 C203.653971,10.0830078 202.537435,10.5358887 201.694336,11.4416504 C200.851237,12.3474121 200.355632,13.6433919 200.20752,15.3295898 L209.470215,15.3295898 C209.458822,14.292806 209.29362,13.3813477 208.974609,12.5952148 C208.655599,11.809082 208.174235,11.1938477 207.530518,10.7495117 C206.8868,10.3051758 206.057943,10.0830078 205.043945,10.0830078 Z" id="Shape"></path>
                <path d="M221.245117,22.5244141 L221.467285,22.9174805 C221.262207,23.7491862 221.003011,24.6378581 220.689697,25.5834961 C220.376383,26.5291341 220.031738,27.4747721 219.655762,28.4204102 C219.279785,29.3660482 218.903809,30.2604167 218.527832,31.1035156 L215.998535,31.1035156 C216.237793,30.1920573 216.468506,29.2293294 216.690674,28.215332 C216.912842,27.2013346 217.11792,26.2044271 217.305908,25.2246094 C217.493896,24.2447917 217.644857,23.3447266 217.758789,22.5244141 L221.245117,22.5244141 Z" id="Path"></path>
                <path d="M243.188477,7.43408203 C245.512695,7.43408203 247.250163,7.94962565 248.400879,8.98071289 C249.551595,10.0118001 250.126953,11.6381836 250.126953,13.8598633 L250.126953,26.5917969 L247.666016,26.5917969 L246.999512,23.8574219 L246.862793,23.8574219 C246.338704,24.5410156 245.791829,25.1106771 245.222168,25.5664062 C244.652507,26.0221354 243.994548,26.3639323 243.248291,26.5917969 C242.502035,26.8196615 241.593424,26.9335938 240.522461,26.9335938 C239.383138,26.9335938 238.369141,26.7285156 237.480469,26.3183594 C236.591797,25.9082031 235.893962,25.2901204 235.386963,24.4641113 C234.879964,23.6381022 234.626465,22.5870768 234.626465,21.3110352 C234.626465,19.3969727 235.361328,17.9443359 236.831055,16.953125 C238.300781,15.9619141 240.528158,15.4207357 243.513184,15.3295898 L246.760254,15.1928711 L246.760254,14.1333008 C246.760254,12.6635742 246.432699,11.6267904 245.777588,11.0229492 C245.122477,10.4191081 244.208171,10.1171875 243.034668,10.1171875 C242.066243,10.1171875 241.137695,10.2567546 240.249023,10.5358887 C239.360352,10.8150228 238.505859,11.1482747 237.685547,11.5356445 L236.591797,9.04052734 C237.480469,8.58479818 238.491618,8.203125 239.625244,7.89550781 C240.75887,7.58789062 241.946615,7.43408203 243.188477,7.43408203 Z M246.726074,17.4487305 L244.094238,17.5683594 C241.918132,17.648112 240.38859,18.009847 239.505615,18.6535645 C238.62264,19.2972819 238.181152,20.1944987 238.181152,21.3452148 C238.181152,22.347819 238.483073,23.0826823 239.086914,23.5498047 C239.690755,24.0169271 240.488281,24.2504883 241.479492,24.2504883 C243.006185,24.2504883 244.262288,23.8203939 245.247803,22.9602051 C246.233317,22.1000163 246.726074,20.8268229 246.726074,19.140625 L246.726074,17.4487305 Z" id="Shape"></path>
                <path d="M265.217285,7.41699219 C267.393392,7.41699219 269.065348,7.96386719 270.233154,9.05761719 C271.40096,10.1513672 271.984863,11.9059245 271.984863,14.3212891 L271.984863,26.5917969 L268.583984,26.5917969 L268.583984,14.7827148 C268.583984,13.2788086 268.253581,12.1480306 267.592773,11.3903809 C266.931966,10.6327311 265.917969,10.2539063 264.550781,10.2539063 C262.602539,10.2539063 261.2382,10.8292643 260.457764,11.9799805 C259.677327,13.1306966 259.287109,14.7998047 259.287109,16.9873047 L259.287109,26.5917969 L255.852051,26.5917969 L255.852051,7.75878906 L258.569336,7.75878906 L259.064941,10.4077148 L259.25293,10.4077148 C259.651693,9.74690755 260.158691,9.19433594 260.773926,8.75 C261.38916,8.30566406 262.075602,7.97241211 262.833252,7.75024414 C263.590902,7.52807617 264.385579,7.41699219 265.217285,7.41699219 Z" id="Path"></path>
                <path d="M284.221191,26.9335938 C281.919759,26.9335938 280.082601,26.1189779 278.709717,24.4897461 C277.336833,22.8605143 276.650391,20.4451497 276.650391,17.2436523 C276.650391,14.0079753 277.348226,11.5612793 278.743896,9.90356445 C280.139567,8.24584961 281.993815,7.41699219 284.306641,7.41699219 C285.275065,7.41699219 286.123861,7.54801432 286.853027,7.81005859 C287.582194,8.07210286 288.21167,8.41959635 288.741455,8.85253906 C289.27124,9.28548177 289.712728,9.77539062 290.065918,10.3222656 L290.270996,10.3222656 C290.21403,9.96907552 290.157064,9.47347005 290.100098,8.83544922 C290.043132,8.19742839 290.014648,7.63916016 290.014648,7.16064453 L290.014648,0 L293.449707,0 L293.449707,26.5917969 L290.732422,26.5917969 L290.168457,23.9770508 L290.014648,23.9770508 C289.672852,24.5239258 289.237061,25.0223796 288.707275,25.4724121 C288.17749,25.9224447 287.545166,26.2784831 286.810303,26.5405273 C286.075439,26.8025716 285.212402,26.9335938 284.221191,26.9335938 Z M285.024414,24.1308594 C286.88151,24.1308594 288.19458,23.5953776 288.963623,22.5244141 C289.732666,21.4534505 290.122884,19.8640951 290.134277,17.7563477 L290.134277,17.2265625 C290.134277,14.9820964 289.766846,13.2588704 289.031982,12.0568848 C288.297119,10.8548991 286.94987,10.2539062 284.990234,10.2539062 C283.395182,10.2539062 282.193197,10.8776855 281.384277,12.1252441 C280.575358,13.3728027 280.170898,15.1017253 280.170898,17.3120117 C280.170898,19.4995117 280.575358,21.1828613 281.384277,22.3620605 C282.193197,23.5412598 283.406576,24.1308594 285.024414,24.1308594 Z" id="Shape"></path>
                <path d="M17.6196289,58.8754883 C17.6196289,60.3566081 17.2521973,61.6241048 16.517334,62.6779785 C15.7824707,63.7318522 14.7485352,64.5379232 13.4155273,65.0961914 C12.0825195,65.6544596 10.4988607,65.9335938 8.66455078,65.9335938 C7.74169922,65.9335938 6.86157227,65.8851725 6.02416992,65.7883301 C5.18676758,65.6914876 4.40917969,65.5519206 3.69140625,65.3696289 C2.97363281,65.1873372 2.32421875,64.9594727 1.74316406,64.6860352 L1.74316406,61.3706055 C2.68880208,61.7579753 3.78255208,62.1197103 5.02441406,62.4558105 C6.26627604,62.7919108 7.54801432,62.9599609 8.86962891,62.9599609 C10.0203451,62.9599609 10.9859212,62.803304 11.7663574,62.4899902 C12.5467936,62.1766764 13.1363932,61.7351888 13.5351562,61.1655273 C13.9339193,60.5958659 14.1333008,59.9122721 14.1333008,59.1147461 C14.1333008,58.3172201 13.9396159,57.6478678 13.5522461,57.1066895 C13.1648763,56.5655111 12.5524902,56.0670573 11.7150879,55.6113281 C10.8776855,55.155599 9.78108724,54.6713867 8.42529297,54.1586914 C7.47965495,53.8168945 6.61946615,53.4266764 5.84472656,52.9880371 C5.06998698,52.5493978 4.40063477,52.0452474 3.83666992,51.4755859 C3.27270508,50.9059245 2.83691406,50.2365723 2.52929688,49.4675293 C2.22167969,48.6984863 2.06787109,47.8126628 2.06787109,46.8100586 C2.06787109,45.4314779 2.40681966,44.2522786 3.0847168,43.2724609 C3.76261393,42.2926432 4.71110026,41.5435384 5.93017578,41.0251465 C7.1492513,40.5067546 8.56201172,40.2475586 10.168457,40.2475586 C11.4900716,40.2475586 12.7233887,40.3785807 13.8684082,40.640625 C15.0134277,40.9026693 16.1043294,41.261556 17.1411133,41.7172852 L16.0302734,44.6225586 C15.061849,44.2237956 14.0877279,43.8990885 13.1079102,43.6484375 C12.1280924,43.3977865 11.1140951,43.2724609 10.065918,43.2724609 C9.09749349,43.2724609 8.2800293,43.4148763 7.61352539,43.699707 C6.94702148,43.9845378 6.44002279,44.3889974 6.0925293,44.9130859 C5.74503581,45.4371745 5.57128906,46.0581055 5.57128906,46.7758789 C5.57128906,47.5847982 5.75358073,48.2569987 6.11816406,48.7924805 C6.4827474,49.3279622 7.05810547,49.8121745 7.84423828,50.2451172 C8.63037109,50.6780599 9.65576172,51.1394857 10.9204102,51.6293945 C12.3445638,52.1762695 13.5550944,52.7573242 14.552002,53.3725586 C15.5489095,53.987793 16.3094076,54.7283529 16.8334961,55.5942383 C17.3575846,56.4601237 17.6196289,57.5538737 17.6196289,58.8754883 Z" id="Path"></path>
                <path d="M29.5141602,46.4169922 C31.1547852,46.4169922 32.561849,46.767334 33.7353516,47.4680176 C34.9088542,48.1687012 35.8089193,49.1570638 36.4355469,50.4331055 C37.0621745,51.7091471 37.3754883,53.2130534 37.3754883,54.9448242 L37.3754883,56.8930664 L24.5922852,56.8930664 C24.6264648,58.909668 25.1448568,60.4562988 26.1474609,61.532959 C27.1500651,62.6096191 28.5571289,63.1479492 30.3686523,63.1479492 C31.5649414,63.1479492 32.6302083,63.0340169 33.5644531,62.8061523 C34.4986979,62.5782878 35.4671224,62.2421875 36.4697266,61.7978516 L36.4697266,64.6860352 C35.5240885,65.1189779 34.5756022,65.43514 33.6242676,65.6345215 C32.6729329,65.833903 31.5364583,65.9335938 30.2148438,65.9335938 C28.3919271,65.9335938 26.7940267,65.5690104 25.4211426,64.8398438 C24.0482585,64.1106771 22.9801432,63.0311686 22.2167969,61.6013184 C21.4534505,60.1714681 21.0717773,58.4083659 21.0717773,56.3120117 C21.0717773,54.238444 21.4192708,52.4639486 22.1142578,50.9885254 C22.8092448,49.5131022 23.7890625,48.3823242 25.0537109,47.5961914 C26.3183594,46.8100586 27.8051758,46.4169922 29.5141602,46.4169922 Z M29.4970703,49.0830078 C28.1070964,49.0830078 26.9905599,49.5358887 26.1474609,50.4416504 C25.304362,51.3474121 24.8087565,52.6433919 24.6606445,54.3295898 L33.9233398,54.3295898 C33.9119466,53.292806 33.7467448,52.3813477 33.4277344,51.5952148 C33.108724,50.809082 32.62736,50.1938477 31.9836426,49.7495117 C31.3399251,49.3051758 30.5110677,49.0830078 29.4970703,49.0830078 Z" id="Shape"></path>
                <path d="M49.6118164,65.9335938 C47.8800456,65.9335938 46.3647461,65.5861003 45.065918,64.8911133 C43.7670898,64.1961263 42.7616374,63.1337077 42.0495605,61.7038574 C41.3374837,60.2740072 40.9814453,58.465332 40.9814453,56.277832 C40.9814453,53.9991862 41.3631185,52.1335449 42.1264648,50.6809082 C42.8898112,49.2282715 43.9465332,48.1544596 45.2966309,47.4594727 C46.6467285,46.7644857 48.1933594,46.4169922 49.9365234,46.4169922 C50.9619141,46.4169922 51.9217936,46.5195312 52.8161621,46.7246094 C53.7105306,46.9296875 54.4596354,47.1860352 55.0634766,47.4936523 L54.0380859,50.2792969 C53.4000651,50.0286458 52.713623,49.8064779 51.9787598,49.612793 C51.2438965,49.4191081 50.5460612,49.3222656 49.8852539,49.3222656 C48.6775716,49.3222656 47.6778158,49.5871582 46.8859863,50.1169434 C46.0941569,50.6467285 45.4988607,51.4243164 45.1000977,52.449707 C44.7013346,53.4750977 44.5019531,54.7397461 44.5019531,56.2436523 C44.5019531,57.7019857 44.6984863,58.9353027 45.0915527,59.9436035 C45.4846191,60.9519043 46.0656738,61.718099 46.8347168,62.2421875 C47.6037598,62.766276 48.5636393,63.0283203 49.7143555,63.0283203 C50.7283529,63.0283203 51.6398112,62.914388 52.4487305,62.6865234 C53.2576497,62.4586589 54.0039062,62.1681315 54.6875,61.8149414 L54.6875,64.8398438 C54.0266927,65.2044271 53.297526,65.4778646 52.5,65.6601562 C51.702474,65.8424479 50.7397461,65.9335938 49.6118164,65.9335938 Z" id="Path"></path>
                <path d="M75.1098633,46.7587891 L75.1098633,65.5917969 L72.3583984,65.5917969 L71.8798828,63.0112305 L71.6918945,63.0112305 C71.3045247,63.6606445 70.8032227,64.2018229 70.1879883,64.6347656 C69.5727539,65.0677083 68.8834635,65.3924154 68.1201172,65.6088867 C67.3567708,65.8253581 66.5478516,65.9335938 65.6933594,65.9335938 C64.2464193,65.9335938 63.0187988,65.6943359 62.010498,65.2158203 C61.0021973,64.7373047 60.2388509,63.9938965 59.720459,62.9855957 C59.2020671,61.9772949 58.9428711,60.6756185 58.9428711,59.0805664 L58.9428711,46.7587891 L62.3950195,46.7587891 L62.3950195,58.6020508 C62.3950195,60.1173503 62.7225749,61.2509766 63.3776855,62.0029297 C64.0327962,62.7548828 65.0325521,63.1308594 66.3769531,63.1308594 C67.6871745,63.1308594 68.7268066,62.8716634 69.4958496,62.3532715 C70.2648926,61.8348796 70.8174642,61.0772298 71.1535645,60.0803223 C71.4896647,59.0834147 71.6577148,57.8614909 71.6577148,56.4145508 L71.6577148,46.7587891 L75.1098633,46.7587891 Z" id="Path"></path>
                <path d="M90.0292969,46.4169922 C90.3710938,46.4169922 90.7413737,46.4369303 91.1401367,46.4768066 C91.5388997,46.5166829 91.8806966,46.5651042 92.1655273,46.6220703 L91.8066406,49.8178711 C91.5332031,49.7495117 91.217041,49.6925456 90.8581543,49.6469727 C90.4992676,49.6013997 90.1660156,49.5786133 89.8583984,49.5786133 C89.1292318,49.5786133 88.4342448,49.715332 87.7734375,49.9887695 C87.1126302,50.262207 86.5315755,50.6581217 86.0302734,51.1765137 C85.5289714,51.6949056 85.1359049,52.3272298 84.8510742,53.0734863 C84.5662435,53.8197428 84.4238281,54.6713867 84.4238281,55.628418 L84.4238281,65.5917969 L80.9716797,65.5917969 L80.9716797,46.7587891 L83.7402344,46.7587891 L84.1503906,50.159668 L84.3041992,50.159668 C84.691569,49.4760742 85.1615397,48.8494466 85.7141113,48.2797852 C86.2666829,47.7101237 86.9047038,47.2572428 87.6281738,46.9211426 C88.3516439,46.5850423 89.1520182,46.4169922 90.0292969,46.4169922 Z" id="Path"></path>
                <path d="M99.1040039,46.7587891 L99.1040039,65.5917969 L95.6689453,65.5917969 L95.6689453,46.7587891 L99.1040039,46.7587891 Z M97.4121094,39.6323242 C97.9589844,39.6323242 98.4289551,39.7918294 98.8220215,40.1108398 C99.2150879,40.4298503 99.4116211,40.9482422 99.4116211,41.6660156 C99.4116211,42.3837891 99.2150879,42.9050293 98.8220215,43.2297363 C98.4289551,43.5544434 97.9589844,43.7167969 97.4121094,43.7167969 C96.8538411,43.7167969 96.3838704,43.5544434 96.0021973,43.2297363 C95.6205241,42.9050293 95.4296875,42.3837891 95.4296875,41.6660156 C95.4296875,40.9482422 95.6205241,40.4298503 96.0021973,40.1108398 C96.3838704,39.7918294 96.8538411,39.6323242 97.4121094,39.6323242 Z" id="Shape"></path>
                <path d="M111.52832,63.1479492 C112.018229,63.1479492 112.513835,63.1052246 113.015137,63.0197754 C113.516439,62.9343262 113.949382,62.8232422 114.313965,62.6865234 L114.313965,65.3183594 C113.926595,65.4892578 113.411051,65.6345215 112.767334,65.7541504 C112.123617,65.8737793 111.465658,65.9335938 110.793457,65.9335938 C109.768066,65.9335938 108.839518,65.7569987 108.007813,65.4038086 C107.176107,65.0506185 106.512451,64.4467773 106.016846,63.5922852 C105.52124,62.737793 105.273438,61.5528971 105.273438,60.0375977 L105.273438,49.4077148 L102.658691,49.4077148 L102.658691,47.8183594 L105.393066,46.5537109 L106.606445,42.4863281 L108.725586,42.4863281 L108.725586,46.7587891 L114.177246,46.7587891 L114.177246,49.4077148 L108.725586,49.4077148 L108.725586,59.9863281 C108.725586,61.0458984 108.979085,61.8377279 109.486084,62.3618164 C109.993083,62.8859049 110.673828,63.1479492 111.52832,63.1479492 Z" id="Path"></path>
                <path d="M115.236816,46.7587891 L118.945312,46.7587891 L122.944336,57.6108398 C123.149414,58.1691081 123.340251,58.7131348 123.516846,59.2429199 C123.693441,59.7727051 123.847249,60.2854004 123.978271,60.7810059 C124.109294,61.2766113 124.214681,61.7636719 124.294434,62.2421875 L124.414062,62.2421875 C124.550781,61.6611328 124.744466,60.9547526 124.995117,60.1230469 C125.245768,59.2913411 125.519206,58.4482422 125.81543,57.59375 L129.643555,46.7587891 L133.334961,46.7587891 L125.200195,68.2578125 C124.755859,69.4541016 124.217529,70.4823405 123.585205,71.3425293 C122.952881,72.2027181 122.203776,72.8635254 121.337891,73.3249512 C120.472005,73.786377 119.446615,74.0170898 118.261719,74.0170898 C117.714844,74.0170898 117.23348,73.9857585 116.817627,73.9230957 C116.401774,73.8604329 116.045736,73.7892253 115.749512,73.7094727 L115.749512,70.9750977 C116.000163,71.0320638 116.304932,71.0833333 116.663818,71.1289063 C117.022705,71.1744792 117.395833,71.1972656 117.783203,71.1972656 C118.500977,71.1972656 119.119059,71.0576986 119.637451,70.7785645 C120.155843,70.4994303 120.600179,70.1035156 120.970459,69.5908203 C121.340739,69.078125 121.651204,68.4799805 121.901855,67.7963867 L122.756348,65.574707 L115.236816,46.7587891 Z" id="Path"></path>
                <path d="M165.839844,52.8598633 C165.839844,55.6739909 165.321452,58.0238444 164.284668,59.9094238 C163.247884,61.7950033 161.746826,63.2134603 159.781494,64.1647949 C157.816162,65.1161296 155.432129,65.5917969 152.629395,65.5917969 L145.776367,65.5917969 L145.776367,40.6064453 L153.398438,40.6064453 C155.950521,40.6064453 158.155111,41.0707194 160.012207,41.9992676 C161.869303,42.9278158 163.30485,44.3006999 164.318848,46.1179199 C165.332845,47.93514 165.839844,50.1824544 165.839844,52.8598633 Z M162.165527,52.9624023 C162.165527,50.8204753 161.818034,49.0545247 161.123047,47.6645508 C160.42806,46.2745768 159.408366,45.2406413 158.063965,44.5627441 C156.719564,43.884847 155.073242,43.5458984 153.125,43.5458984 L149.279785,43.5458984 L149.279785,62.6181641 L152.509766,62.6181641 C155.734049,62.6181641 158.149414,61.8092448 159.755859,60.1914062 C161.362305,58.5735677 162.165527,56.1638997 162.165527,52.9624023 Z" id="Shape"></path>
                <path d="M178.093262,46.434082 C180.41748,46.434082 182.154948,46.9496257 183.305664,47.9807129 C184.45638,49.0118001 185.031738,50.6381836 185.031738,52.8598633 L185.031738,65.5917969 L182.570801,65.5917969 L181.904297,62.8574219 L181.767578,62.8574219 C181.24349,63.5410156 180.696615,64.1106771 180.126953,64.5664062 C179.557292,65.0221354 178.899333,65.3639323 178.153076,65.5917969 C177.40682,65.8196615 176.49821,65.9335938 175.427246,65.9335938 C174.287923,65.9335938 173.273926,65.7285156 172.385254,65.3183594 C171.496582,64.9082031 170.798747,64.2901204 170.291748,63.4641113 C169.784749,62.6381022 169.53125,61.5870768 169.53125,60.3110352 C169.53125,58.3969727 170.266113,56.9443359 171.73584,55.953125 C173.205566,54.9619141 175.432943,54.4207357 178.417969,54.3295898 L181.665039,54.1928711 L181.665039,53.1333008 C181.665039,51.6635742 181.337484,50.6267904 180.682373,50.0229492 C180.027262,49.4191081 179.112956,49.1171875 177.939453,49.1171875 C176.971029,49.1171875 176.04248,49.2567546 175.153809,49.5358887 C174.265137,49.8150228 173.410645,50.1482747 172.590332,50.5356445 L171.496582,48.0405273 C172.385254,47.5847982 173.396403,47.203125 174.530029,46.8955078 C175.663656,46.5878906 176.8514,46.434082 178.093262,46.434082 Z M181.630859,56.4487305 L178.999023,56.5683594 C176.822917,56.648112 175.293376,57.009847 174.4104,57.6535645 C173.527425,58.2972819 173.085938,59.1944987 173.085938,60.3452148 C173.085938,61.347819 173.387858,62.0826823 173.991699,62.5498047 C174.59554,63.0169271 175.393066,63.2504883 176.384277,63.2504883 C177.91097,63.2504883 179.167074,62.8203939 180.152588,61.9602051 C181.138102,61.1000163 181.630859,59.8268229 181.630859,58.140625 L181.630859,56.4487305 Z" id="Shape"></path>
                <path d="M197.319336,63.1479492 C197.809245,63.1479492 198.30485,63.1052246 198.806152,63.0197754 C199.307454,62.9343262 199.740397,62.8232422 200.10498,62.6865234 L200.10498,65.3183594 C199.717611,65.4892578 199.202067,65.6345215 198.55835,65.7541504 C197.914632,65.8737793 197.256673,65.9335938 196.584473,65.9335938 C195.559082,65.9335938 194.630534,65.7569987 193.798828,65.4038086 C192.967122,65.0506185 192.303467,64.4467773 191.807861,63.5922852 C191.312256,62.737793 191.064453,61.5528971 191.064453,60.0375977 L191.064453,49.4077148 L188.449707,49.4077148 L188.449707,47.8183594 L191.184082,46.5537109 L192.397461,42.4863281 L194.516602,42.4863281 L194.516602,46.7587891 L199.968262,46.7587891 L199.968262,49.4077148 L194.516602,49.4077148 L194.516602,59.9863281 C194.516602,61.0458984 194.770101,61.8377279 195.2771,62.3618164 C195.784098,62.8859049 196.464844,63.1479492 197.319336,63.1479492 Z" id="Path"></path>
                <path d="M211.12793,46.434082 C213.452148,46.434082 215.189616,46.9496257 216.340332,47.9807129 C217.491048,49.0118001 218.066406,50.6381836 218.066406,52.8598633 L218.066406,65.5917969 L215.605469,65.5917969 L214.938965,62.8574219 L214.802246,62.8574219 C214.278158,63.5410156 213.731283,64.1106771 213.161621,64.5664062 C212.59196,65.0221354 211.934001,65.3639323 211.187744,65.5917969 C210.441488,65.8196615 209.532878,65.9335938 208.461914,65.9335938 C207.322591,65.9335938 206.308594,65.7285156 205.419922,65.3183594 C204.53125,64.9082031 203.833415,64.2901204 203.326416,63.4641113 C202.819417,62.6381022 202.565918,61.5870768 202.565918,60.3110352 C202.565918,58.3969727 203.300781,56.9443359 204.770508,55.953125 C206.240234,54.9619141 208.467611,54.4207357 211.452637,54.3295898 L214.699707,54.1928711 L214.699707,53.1333008 C214.699707,51.6635742 214.372152,50.6267904 213.717041,50.0229492 C213.06193,49.4191081 212.147624,49.1171875 210.974121,49.1171875 C210.005697,49.1171875 209.077148,49.2567546 208.188477,49.5358887 C207.299805,49.8150228 206.445312,50.1482747 205.625,50.5356445 L204.53125,48.0405273 C205.419922,47.5847982 206.431071,47.203125 207.564697,46.8955078 C208.698324,46.5878906 209.886068,46.434082 211.12793,46.434082 Z M214.665527,56.4487305 L212.033691,56.5683594 C209.857585,56.648112 208.328044,57.009847 207.445068,57.6535645 C206.562093,58.2972819 206.120605,59.1944987 206.120605,60.3452148 C206.120605,61.347819 206.422526,62.0826823 207.026367,62.5498047 C207.630208,63.0169271 208.427734,63.2504883 209.418945,63.2504883 C210.945638,63.2504883 212.201742,62.8203939 213.187256,61.9602051 C214.17277,61.1000163 214.665527,59.8268229 214.665527,58.140625 L214.665527,56.4487305 Z" id="Shape"></path>
                <path d="M227.226562,39 L227.226562,45.5283203 C227.226562,46.2802734 227.206624,47.0151367 227.166748,47.7329102 C227.126872,48.4506836 227.089844,49.0032552 227.055664,49.390625 L227.226562,49.390625 C227.739258,48.5703125 228.465576,47.8724772 229.405518,47.2971191 C230.345459,46.7217611 231.55599,46.434082 233.037109,46.434082 C235.327148,46.434082 237.161458,47.2515462 238.540039,48.8864746 C239.91862,50.521403 240.60791,52.9453125 240.60791,56.1582031 C240.60791,58.2773438 240.291748,60.0660807 239.659424,61.5244141 C239.0271,62.9827474 238.138428,64.082194 236.993408,64.8227539 C235.848389,65.5633138 234.501139,65.9335938 232.95166,65.9335938 C231.481934,65.9335938 230.291341,65.6630046 229.379883,65.1218262 C228.468424,64.5806478 227.756348,63.934082 227.243652,63.1821289 L226.987305,63.1821289 L226.337891,65.5917969 L223.791504,65.5917969 L223.791504,39 L227.226562,39 Z M232.268066,49.2539062 C231.026204,49.2539062 230.037842,49.4988607 229.302979,49.9887695 C228.568115,50.4786784 228.041178,51.2192383 227.722168,52.2104492 C227.403158,53.2016602 227.237956,54.4492188 227.226562,55.953125 L227.226562,56.2094727 C227.226562,58.4425456 227.591146,60.1515299 228.320312,61.3364258 C229.049479,62.5213216 230.371094,63.1137695 232.285156,63.1137695 C233.857422,63.1137695 235.050863,62.5099284 235.865479,61.3022461 C236.680094,60.0945638 237.087402,58.3684896 237.087402,56.1240234 C237.087402,53.8453776 236.682943,52.1306966 235.874023,50.9799805 C235.065104,49.8292643 233.863118,49.2539062 232.268066,49.2539062 Z" id="Shape"></path>
                <path d="M252.60498,46.434082 C254.929199,46.434082 256.666667,46.9496257 257.817383,47.9807129 C258.968099,49.0118001 259.543457,50.6381836 259.543457,52.8598633 L259.543457,65.5917969 L257.08252,65.5917969 L256.416016,62.8574219 L256.279297,62.8574219 C255.755208,63.5410156 255.208333,64.1106771 254.638672,64.5664062 C254.06901,65.0221354 253.411051,65.3639323 252.664795,65.5917969 C251.918538,65.8196615 251.009928,65.9335938 249.938965,65.9335938 C248.799642,65.9335938 247.785645,65.7285156 246.896973,65.3183594 C246.008301,64.9082031 245.310465,64.2901204 244.803467,63.4641113 C244.296468,62.6381022 244.042969,61.5870768 244.042969,60.3110352 C244.042969,58.3969727 244.777832,56.9443359 246.247559,55.953125 C247.717285,54.9619141 249.944661,54.4207357 252.929688,54.3295898 L256.176758,54.1928711 L256.176758,53.1333008 C256.176758,51.6635742 255.849202,50.6267904 255.194092,50.0229492 C254.538981,49.4191081 253.624674,49.1171875 252.451172,49.1171875 C251.482747,49.1171875 250.554199,49.2567546 249.665527,49.5358887 C248.776855,49.8150228 247.922363,50.1482747 247.102051,50.5356445 L246.008301,48.0405273 C246.896973,47.5847982 247.908122,47.203125 249.041748,46.8955078 C250.175374,46.5878906 251.363118,46.434082 252.60498,46.434082 Z M256.142578,56.4487305 L253.510742,56.5683594 C251.334635,56.648112 249.805094,57.009847 248.922119,57.6535645 C248.039144,58.2972819 247.597656,59.1944987 247.597656,60.3452148 C247.597656,61.347819 247.899577,62.0826823 248.503418,62.5498047 C249.107259,63.0169271 249.904785,63.2504883 250.895996,63.2504883 C252.422689,63.2504883 253.678792,62.8203939 254.664307,61.9602051 C255.649821,61.1000163 256.142578,59.8268229 256.142578,58.140625 L256.142578,56.4487305 Z" id="Shape"></path>
                <path d="M277.692871,60.328125 C277.692871,61.5472005 277.393799,62.5754395 276.795654,63.4128418 C276.19751,64.2502441 275.328776,64.8797201 274.189453,65.3012695 C273.05013,65.722819 271.682943,65.9335938 270.087891,65.9335938 C268.766276,65.9335938 267.626953,65.833903 266.669922,65.6345215 C265.712891,65.43514 264.847005,65.1474609 264.072266,64.7714844 L264.072266,61.7294922 C264.903971,62.1282552 265.866699,62.4814453 266.960449,62.7890625 C268.054199,63.0966797 269.125163,63.2504883 270.17334,63.2504883 C271.643066,63.2504883 272.705485,63.0169271 273.360596,62.5498047 C274.015706,62.0826823 274.343262,61.4503581 274.343262,60.652832 C274.343262,60.1857096 274.21224,59.7727051 273.950195,59.4138184 C273.688151,59.0549316 273.229574,58.6960449 272.574463,58.3371582 C271.919352,57.9782715 270.982259,57.5652669 269.763184,57.0981445 C268.566895,56.6310221 267.544352,56.1638997 266.695557,55.6967773 C265.846761,55.2296549 265.200195,54.6656901 264.755859,54.0048828 C264.311523,53.3440755 264.089355,52.4895833 264.089355,51.4414063 C264.089355,49.8121745 264.741618,48.5674642 266.046143,47.7072754 C267.350667,46.8470866 269.073893,46.4169922 271.21582,46.4169922 C272.355143,46.4169922 273.428955,46.5309245 274.437256,46.7587891 C275.445557,46.9866536 276.411133,47.3056641 277.333984,47.7158203 L276.223145,50.3647461 C275.402832,50.011556 274.559733,49.7181803 273.693848,49.4846191 C272.827962,49.2510579 271.944987,49.1342773 271.044922,49.1342773 C269.871419,49.1342773 268.974202,49.3222656 268.353271,49.6982422 C267.73234,50.0742187 267.421875,50.5926107 267.421875,51.253418 C267.421875,51.7661133 267.567139,52.1933594 267.857666,52.5351563 C268.148193,52.8769531 268.635254,53.2102051 269.318848,53.5349121 C270.002441,53.8596191 270.925293,54.2441406 272.087402,54.6884766 C273.238118,55.1214193 274.232178,55.5714518 275.06958,56.0385742 C275.906982,56.5056966 276.553548,57.0753581 277.009277,57.7475586 C277.465007,58.4197591 277.692871,59.2799479 277.692871,60.328125 Z" id="Path"></path>
                <path d="M289.519043,46.4169922 C291.159668,46.4169922 292.566732,46.767334 293.740234,47.4680176 C294.913737,48.1687012 295.813802,49.1570638 296.44043,50.4331055 C297.067057,51.7091471 297.380371,53.2130534 297.380371,54.9448242 L297.380371,56.8930664 L284.597168,56.8930664 C284.631348,58.909668 285.14974,60.4562988 286.152344,61.532959 C287.154948,62.6096191 288.562012,63.1479492 290.373535,63.1479492 C291.569824,63.1479492 292.635091,63.0340169 293.569336,62.8061523 C294.503581,62.5782878 295.472005,62.2421875 296.474609,61.7978516 L296.474609,64.6860352 C295.528971,65.1189779 294.580485,65.43514 293.62915,65.6345215 C292.677816,65.833903 291.541341,65.9335938 290.219727,65.9335938 C288.39681,65.9335938 286.79891,65.5690104 285.426025,64.8398438 C284.053141,64.1106771 282.985026,63.0311686 282.22168,61.6013184 C281.458333,60.1714681 281.07666,58.4083659 281.07666,56.3120117 C281.07666,54.238444 281.424154,52.4639486 282.119141,50.9885254 C282.814128,49.5131022 283.793945,48.3823242 285.058594,47.5961914 C286.323242,46.8100586 287.810059,46.4169922 289.519043,46.4169922 Z M289.501953,49.0830078 C288.111979,49.0830078 286.995443,49.5358887 286.152344,50.4416504 C285.309245,51.3474121 284.813639,52.6433919 284.665527,54.3295898 L293.928223,54.3295898 C293.916829,53.292806 293.751628,52.3813477 293.432617,51.5952148 C293.113607,50.809082 292.632243,50.1938477 291.988525,49.7495117 C291.344808,49.3051758 290.515951,49.0830078 289.501953,49.0830078 Z" id="Shape"></path>
            </g>
        </g>
    </g>
</svg>